<svg width="20" height="15" viewBox="0 0 20 15" fill="none" xmlns="http://www.w3.org/2000/svg">
<path d="M1 0C0.447715 0 0 0.447715 0 1C0 1.55228 0.447715 2 1 2V0ZM3 1L3.99705 0.923304C3.95698 0.402306 3.52254 0 3 0V1ZM19 4L19.9939 4.11043C20.0253 3.82773 19.9348 3.54503 19.7451 3.33308C19.5554 3.12113 19.2844 3 19 3V4ZM3.23077 4L2.23371 4.0767L3.23077 4ZM16.3387 13.1187L16.4099 14.1161L16.3387 13.1187ZM5.98405 13.8583L5.9128 12.8608L5.98405 13.8583ZM1 2H3V0H1V2ZM6.05529 14.8557L16.4099 14.1161L16.2674 12.1212L5.9128 12.8608L6.05529 14.8557ZM19.1778 11.455L19.9939 4.11043L18.0061 3.88957L17.19 11.2342L19.1778 11.455ZM2.00295 1.0767L2.23371 4.0767L4.22782 3.9233L3.99705 0.923304L2.00295 1.0767ZM2.23371 4.0767L2.85039 12.0935L4.8445 11.9401L4.22782 3.9233L2.23371 4.0767ZM19 3H3.23077V5H19V3ZM16.4099 14.1161C17.8537 14.013 19.018 12.8937 19.1778 11.455L17.19 11.2342C17.1368 11.7137 16.7487 12.0868 16.2674 12.1212L16.4099 14.1161ZM5.9128 12.8608C5.36404 12.9 4.88669 12.4886 4.8445 11.9401L2.85039 12.0935C2.97697 13.739 4.40903 14.9733 6.05529 14.8557L5.9128 12.8608Z" fill="black"/>
</svg>
